<svg id="visual" viewBox="0 0 900 600" width="900" height="600" xmlns="http://www.w3.org/2000/svg" xmlns:xlink="http://www.w3.org/1999/xlink" version="1.1"><rect x="0" y="0" width="900" height="600" fill="#253D71"></rect><defs><linearGradient id="grad1_0" x1="33.3%" y1="0%" x2="100%" y2="100%"><stop offset="20%" stop-color="#253d71" stop-opacity="1"></stop><stop offset="80%" stop-color="#253d71" stop-opacity="1"></stop></linearGradient></defs><defs><linearGradient id="grad2_0" x1="0%" y1="0%" x2="66.7%" y2="100%"><stop offset="20%" stop-color="#253d71" stop-opacity="1"></stop><stop offset="80%" stop-color="#253d71" stop-opacity="1"></stop></linearGradient></defs><g transform="translate(900, 0)"><path d="M0 459.7C-94.6 455.9 -189.2 452 -229.9 398.1C-270.5 344.2 -257.3 240.2 -286.7 165.5C-316 90.8 -387.8 45.4 -459.7 0L0 0Z" fill="#7bb0ff"></path></g><g transform="translate(0, 600)"><path d="M0 -459.7C47.8 -392 95.6 -324.3 170 -294.4C244.4 -264.6 345.4 -272.6 398.1 -229.9C450.8 -187.1 455.3 -93.5 459.7 0L0 0Z" fill="#7bb0ff"></path></g></svg>