<svg id="visual" viewBox="0 0 960 540" width="960" height="540" xmlns="http://www.w3.org/2000/svg" xmlns:xlink="http://www.w3.org/1999/xlink" version="1.1"><rect x="0" y="0" width="960" height="540" fill="#84caff"></rect><path d="M0 402L22.8 389.8C45.7 377.7 91.3 353.3 137 351.5C182.7 349.7 228.3 370.3 274 380.5C319.7 390.7 365.3 390.3 411.2 383.7C457 377 503 364 548.8 355.8C594.7 347.7 640.3 344.3 686 351.2C731.7 358 777.3 375 823 371.7C868.7 368.3 914.3 344.7 937.2 332.8L960 321L960 541L937.2 541C914.3 541 868.7 541 823 541C777.3 541 731.7 541 686 541C640.3 541 594.7 541 548.8 541C503 541 457 541 411.2 541C365.3 541 319.7 541 274 541C228.3 541 182.7 541 137 541C91.3 541 45.7 541 22.8 541L0 541Z" fill="#6989f9"></path><path d="M0 409L22.8 407.2C45.7 405.3 91.3 401.7 137 395.8C182.7 390 228.3 382 274 375.3C319.7 368.7 365.3 363.3 411.2 366.2C457 369 503 380 548.8 391C594.7 402 640.3 413 686 408.5C731.7 404 777.3 384 823 383.8C868.7 383.7 914.3 403.3 937.2 413.2L960 423L960 541L937.2 541C914.3 541 868.7 541 823 541C777.3 541 731.7 541 686 541C640.3 541 594.7 541 548.8 541C503 541 457 541 411.2 541C365.3 541 319.7 541 274 541C228.3 541 182.7 541 137 541C91.3 541 45.7 541 22.8 541L0 541Z" fill="#5366d5"></path><path d="M0 445L22.8 442.5C45.7 440 91.3 435 137 434.3C182.7 433.7 228.3 437.3 274 438.3C319.7 439.3 365.3 437.7 411.2 434.2C457 430.7 503 425.3 548.8 422C594.7 418.7 640.3 417.3 686 423.3C731.7 429.3 777.3 442.7 823 440.7C868.7 438.7 914.3 421.3 937.2 412.7L960 404L960 541L937.2 541C914.3 541 868.7 541 823 541C777.3 541 731.7 541 686 541C640.3 541 594.7 541 548.8 541C503 541 457 541 411.2 541C365.3 541 319.7 541 274 541C228.3 541 182.7 541 137 541C91.3 541 45.7 541 22.8 541L0 541Z" fill="#3e45b1"></path><path d="M0 483L22.8 481.8C45.7 480.7 91.3 478.3 137 474.7C182.7 471 228.3 466 274 463.2C319.7 460.3 365.3 459.7 411.2 462.2C457 464.7 503 470.3 548.8 466.3C594.7 462.3 640.3 448.7 686 449.5C731.7 450.3 777.3 465.7 823 472.8C868.7 480 914.3 479 937.2 478.5L960 478L960 541L937.2 541C914.3 541 868.7 541 823 541C777.3 541 731.7 541 686 541C640.3 541 594.7 541 548.8 541C503 541 457 541 411.2 541C365.3 541 319.7 541 274 541C228.3 541 182.7 541 137 541C91.3 541 45.7 541 22.8 541L0 541Z" fill="#28248d"></path><path d="M0 505L22.8 500.8C45.7 496.7 91.3 488.3 137 487.7C182.7 487 228.3 494 274 494.8C319.7 495.7 365.3 490.3 411.2 489.8C457 489.3 503 493.7 548.8 495.2C594.7 496.7 640.3 495.3 686 493.2C731.7 491 777.3 488 823 490.8C868.7 493.7 914.3 502.3 937.2 506.7L960 511L960 541L937.2 541C914.3 541 868.7 541 823 541C777.3 541 731.7 541 686 541C640.3 541 594.7 541 548.8 541C503 541 457 541 411.2 541C365.3 541 319.7 541 274 541C228.3 541 182.7 541 137 541C91.3 541 45.7 541 22.8 541L0 541Z" fill="#0f006a"></path></svg>