<svg id="visual" viewBox="0 0 960 540" width="960" height="540" xmlns="http://www.w3.org/2000/svg" xmlns:xlink="http://www.w3.org/1999/xlink" version="1.1"><rect x="0" y="0" width="960" height="540" fill="#80b3ff"></rect><path d="M0 365L69 365L69 378L137 378L137 449L206 449L206 461L274 461L274 428L343 428L343 386L411 386L411 370L480 370L480 450L549 450L549 442L617 442L617 392L686 392L686 361L754 361L754 367L823 367L823 441L891 441L891 352L960 352L960 456L960 541L960 541L891 541L891 541L823 541L823 541L754 541L754 541L686 541L686 541L617 541L617 541L549 541L549 541L480 541L480 541L411 541L411 541L343 541L343 541L274 541L274 541L206 541L206 541L137 541L137 541L69 541L69 541L0 541Z" fill="#5b85e1"></path><path d="M0 487L69 487L69 437L137 437L137 400L206 400L206 495L274 495L274 517L343 517L343 432L411 432L411 489L480 489L480 521L549 521L549 420L617 420L617 482L686 482L686 430L754 430L754 465L823 465L823 422L891 422L891 441L960 441L960 416L960 541L960 541L891 541L891 541L823 541L823 541L754 541L754 541L686 541L686 541L617 541L617 541L549 541L549 541L480 541L480 541L411 541L411 541L343 541L343 541L274 541L274 541L206 541L206 541L137 541L137 541L69 541L69 541L0 541Z" fill="#1e376c"></path></svg>