<svg id="visual" viewBox="0 0 900 600" width="900" height="600" xmlns="http://www.w3.org/2000/svg" xmlns:xlink="http://www.w3.org/1999/xlink" version="1.1"><rect x="0" y="0" width="900" height="600" fill="#052b3e"></rect><path d="M0 80L21.5 80C43 80 86 80 128.8 83.5C171.7 87 214.3 94 257.2 93.3C300 92.7 343 84.3 385.8 87C428.7 89.7 471.3 103.3 514.2 107.5C557 111.7 600 106.3 642.8 119.3C685.7 132.3 728.3 163.7 771.2 171C814 178.3 857 161.7 878.5 153.3L900 145L900 0L878.5 0C857 0 814 0 771.2 0C728.3 0 685.7 0 642.8 0C600 0 557 0 514.2 0C471.3 0 428.7 0 385.8 0C343 0 300 0 257.2 0C214.3 0 171.7 0 128.8 0C86 0 43 0 21.5 0L0 0Z" fill="#0066FF" stroke-linecap="round" stroke-linejoin="miter"></path></svg>