<svg id="visual" viewBox="0 0 960 540" width="960" height="540" xmlns="http://www.w3.org/2000/svg" xmlns:xlink="http://www.w3.org/1999/xlink" version="1.1"><rect x="0" y="0" width="960" height="540" fill="#052b3e"></rect><path d="M0 266L17.8 274.3C35.7 282.7 71.3 299.3 106.8 298.8C142.3 298.3 177.7 280.7 213.2 264.8C248.7 249 284.3 235 320 236.7C355.7 238.3 391.3 255.7 426.8 255.8C462.3 256 497.7 239 533.2 240.3C568.7 241.7 604.3 261.3 640 260.5C675.7 259.7 711.3 238.3 746.8 243.7C782.3 249 817.7 281 853.2 287.7C888.7 294.3 924.3 275.7 942.2 266.3L960 257L960 0L942.2 0C924.3 0 888.7 0 853.2 0C817.7 0 782.3 0 746.8 0C711.3 0 675.7 0 640 0C604.3 0 568.7 0 533.2 0C497.7 0 462.3 0 426.8 0C391.3 0 355.7 0 320 0C284.3 0 248.7 0 213.2 0C177.7 0 142.3 0 106.8 0C71.3 0 35.7 0 17.8 0L0 0Z" fill="#0066FF" stroke-linecap="round" stroke-linejoin="miter"></path></svg>