<svg id="visual" viewBox="0 0 960 540" width="960" height="540" xmlns="http://www.w3.org/2000/svg" xmlns:xlink="http://www.w3.org/1999/xlink" version="1.1"><rect x="0" y="0" width="960" height="540" fill="#0f006a"></rect><path d="M0 390L8.5 391.8C17 393.7 34 397.3 50.8 399.3C67.7 401.3 84.3 401.7 101.2 408.8C118 416 135 430 151.8 438.3C168.7 446.7 185.3 449.3 202.2 441C219 432.7 236 413.3 252.8 407C269.7 400.7 286.3 407.3 303.2 409.7C320 412 337 410 353.8 408.8C370.7 407.7 387.3 407.3 404.2 415.8C421 424.3 438 441.7 454.8 441.2C471.7 440.7 488.3 422.3 505.2 413C522 403.7 539 403.3 555.8 409.7C572.7 416 589.3 429 606.2 434.2C623 439.3 640 436.7 656.8 441.8C673.7 447 690.3 460 707.2 453C724 446 741 419 757.8 407.3C774.7 395.7 791.3 399.3 808.2 400C825 400.7 842 398.3 858.8 397.2C875.7 396 892.3 396 909.2 401.7C926 407.3 943 418.7 951.5 424.3L960 430L960 541L951.5 541C943 541 926 541 909.2 541C892.3 541 875.7 541 858.8 541C842 541 825 541 808.2 541C791.3 541 774.7 541 757.8 541C741 541 724 541 707.2 541C690.3 541 673.7 541 656.8 541C640 541 623 541 606.2 541C589.3 541 572.7 541 555.8 541C539 541 522 541 505.2 541C488.3 541 471.7 541 454.8 541C438 541 421 541 404.2 541C387.3 541 370.7 541 353.8 541C337 541 320 541 303.2 541C286.3 541 269.7 541 252.8 541C236 541 219 541 202.2 541C185.3 541 168.7 541 151.8 541C135 541 118 541 101.2 541C84.3 541 67.7 541 50.8 541C34 541 17 541 8.5 541L0 541Z" fill="#80b3ff" stroke-linecap="round" stroke-linejoin="miter"></path></svg>